# xmcd
#
# Track frame offsets:
#	150
#	22795
#	41755
#	58979
#	81636
#	108143
#	125607
#	143665
#	163715
#	196911
#	216695
#	237027
#	254930
#
# Disc length: 3700 seconds
#
# Revision: 0
# Processed by: cddbd v1.5.2PL0 Copyright (c) Steve Scherf et al.
# Submitted via: EasyCDDAExtractor 10.0.3.1
#
DISCID=c30e720d
DTITLE=FRED BOLTON - I`M GONNA GIT MINE
DYEAR=2006
DGENRE=Soul/R&B
TTITLE0=I`M GONNA GIT MINE(CLUB MIX)
TTITLE1=I CAN`T LOSE(WITH THE STUFF YOU USE)
TTITLE2=BABY IT`S YOU
TTITLE3=MUST BE  JELLY
TTITLE4=A CHANG IS GONNA COME(MEDLEY)
TTITLE5=JUNK IN DA TRUNK
TTITLE6=I`LL NEVER LET GO OF YOUR HAND
TTITLE7=OOH WEE KIND OF LOVER
TTITLE8=EVERYDAY WILL BE LIKE A HOLIDAY
TTITLE9=I`LL NEVER FORGET THE LOVE
TTITLE10=THE SHADOW KNOWS
TTITLE11=YOU ARE MY DESIRE
TTITLE12=I`M GONNA GIT MINE(RADIO MIX0
EXTD=
EXTT0=
EXTT1=
EXTT2=
EXTT3=
EXTT4=
EXTT5=
EXTT6=
EXTT7=
EXTT8=
EXTT9=
EXTT10=
EXTT11=
EXTT12=
PLAYORDER=
